<svg xmlns="http://www.w3.org/2000/svg" xmlns:v="https://svgstorm.com"
viewBox = "0 0 512 512"
width="512"
height="512">
<g fill="None" fill-opacity="0.0" stroke="#06121D" stroke-opacity="1.00" stroke-width="0.3"><path d="
M 0.00 512.00 
L 512.00 512.00
L 512.00 0.00
L 0.00 0.00
L 0.00 512.00
M 139.00 178.00 
C 130.67 178.00 122.33 178.00 114.00 178.00
C 70.91 179.47 28.15 226.29 49.92 269.08 C 76.34 321.16 151.99 322.92 192.70 287.70 C 231.91 256.77 259.17 214.89 295.23 181.23 C 302.05 173.17 310.62 168.04 319.70 163.69 C 328.02 159.75 336.94 145.63 347.25 156.75 C 354.14 169.62 334.71 174.28 326.99 167.01 C 257.79 206.07 225.19 303.19 140.99 316.99 C 96.10 323.64 48.08 299.53 36.22 254.78 C 29.84 191.45 105.96 156.92 159.07 175.93 C 168.87 179.46 178.69 183.51 187.23 189.77 C 193.31 199.77 206.24 197.30 211.92 207.08 C 214.20 220.61 190.99 221.67 190.01 208.99 C 193.41 198.02 178.75 192.13 170.92 188.08 C 161.34 182.66 150.82 179.66 139.99 178.01
M 133.00 192.00 
C 99.66 189.46 59.60 211.25 62.33 248.67 C 69.68 296.79 136.63 310.15 171.08 282.08 C 204.91 259.99 229.77 225.26 256.75 195.75 C 261.71 186.89 273.90 182.95 276.97 172.97 C 271.55 160.31 295.03 154.21 297.97 167.03 C 299.29 183.04 278.80 173.47 273.75 185.75 C 231.14 225.01 197.21 291.90 134.00 301.00 C 87.85 309.96 34.48 259.19 66.30 215.30 C 80.21 197.33 102.32 187.29 125.00 188.00 C 136.18 190.37 148.37 175.26 155.92 190.08 C 157.23 203.58 134.74 205.02 133.00 192.00
M 407.00 174.00 
C 435.51 181.13 466.43 201.37 471.00 233.00
C 473.92 247.99 471.61 266.02 462.00 278.00
C 447.29 300.59 421.71 312.91 396.00 316.00
C 388.41 317.65 377.52 317.68 370.00 316.00
C 350.09 314.94 331.19 306.39 316.25 292.75 C 311.13 285.56 291.10 288.59 298.77 274.77 C 306.50 266.41 323.64 273.93 317.00 286.00
C 328.85 297.52 342.76 306.71 359.00 309.00
C 374.65 311.87 391.30 311.39 407.00 309.00
C 446.04 302.65 480.95 257.48 459.75 219.25 C 440.66 179.84 389.26 169.58 349.98 180.98 C 315.83 195.10 288.62 223.27 264.75 251.75 C 238.70 276.59 218.32 314.06 183.00 326.00
C 182.37 339.28 158.23 339.27 160.00 325.00 C 167.97 311.06 181.48 328.10 190.69 318.69 C 242.39 281.73 272.85 219.07 328.00 187.00
C 337.60 178.92 350.27 173.82 363.00 173.00
C 366.03 172.74 369.37 173.74 372.00 172.00
C 382.87 169.95 396.72 170.62 407.00 174.00
M 253.00 174.00 
C 261.19 177.55 259.15 192.60 249.00 191.00 C 241.02 190.64 237.84 200.82 232.70 205.70 C 200.70 236.72 172.98 285.15 124.00 286.00 C 91.27 288.98 56.78 246.28 85.75 219.75 C 102.83 200.43 134.21 198.06 155.75 210.25 C 161.93 215.82 168.70 219.51 176.69 221.31 C 185.94 224.88 181.12 237.22 172.32 237.32 C 165.18 240.53 153.65 231.11 159.77 223.77 C 141.75 196.94 85.50 207.36 83.00 243.00 C 83.47 280.66 135.99 290.67 160.08 268.08 C 190.46 247.12 213.29 215.95 237.92 188.92 C 233.20 178.97 243.24 170.96 253.00 174.00
M 397.00 189.00 
C 425.39 193.34 457.16 219.14 451.07 251.07 C 446.36 281.83 411.97 302.22 382.00 300.00 C 372.72 299.75 359.24 312.04 353.68 298.32 C 352.14 288.09 370.91 283.80 374.77 294.23 C 383.20 301.49 397.19 294.47 407.01 293.01 C 426.16 288.24 438.72 271.07 447.92 254.92 C 452.54 222.01 422.59 194.32 392.00 192.00
C 385.00 192.00 378.00 192.00 371.00 192.00
C 339.33 196.80 315.21 222.41 293.25 245.25 C 272.94 268.72 252.49 291.52 231.00 314.00
C 238.58 326.62 216.71 334.11 212.08 322.92 C 206.49 307.31 228.21 316.01 232.25 307.25 C 272.95 267.90 304.24 214.20 357.00 192.00
C 368.69 186.72 384.56 185.18 397.00 189.00
M 397.00 210.00 
C 389.14 209.19 381.15 208.68 373.00 209.00
C 335.14 219.08 310.10 256.23 284.25 284.25 C 276.88 291.93 268.92 299.24 271.22 310.22 C 265.66 320.69 244.73 312.56 251.75 301.75 C 261.00 297.59 271.10 295.26 276.75 284.75 C 309.29 250.10 343.80 194.20 398.00 205.00 C 431.59 209.64 446.14 257.45 414.77 275.77 C 396.03 288.18 369.69 287.59 350.31 276.70 C 345.07 267.70 326.88 270.36 329.78 257.78 C 334.59 244.92 356.26 255.41 347.00 267.00
C 365.77 284.49 397.78 285.59 416.75 267.75 C 438.24 249.35 422.58 213.94 397.00 210.00 Z"/>
</g>
<g fill="None" fill-opacity="0.0" stroke="#EAE9EB" stroke-opacity="1.00" stroke-width="0.3"><path d="
M 114.00 178.00 
C 121.26 176.36 131.81 176.32 139.00 178.00
C 150.82 179.66 161.34 182.66 170.92 188.08 C 178.75 192.13 193.41 198.02 190.01 208.99 C 190.99 221.67 214.20 220.61 211.92 207.08 C 206.24 197.30 193.31 199.77 187.23 189.77 C 178.69 183.51 168.87 179.46 159.07 175.93 C 105.96 156.92 29.84 191.45 36.22 254.78 C 48.08 299.53 96.10 323.64 140.99 316.99 C 225.19 303.19 257.79 206.07 326.99 167.01 C 334.71 174.28 354.14 169.62 347.25 156.75 C 336.94 145.63 328.02 159.75 319.70 163.69 C 310.62 168.04 302.05 173.17 295.23 181.23 C 259.17 214.89 231.91 256.77 192.70 287.70 C 151.99 322.92 76.34 321.16 49.92 269.08 C 28.15 226.29 70.91 179.47 114.00 178.00
M 341.00 156.00 
C 347.34 159.74 342.18 169.69 335.78 166.22 C 327.79 163.73 333.87 152.84 341.00 156.00
M 205.00 204.00 
C 210.83 208.98 203.90 217.26 197.78 213.22 C 191.24 208.16 198.46 201.36 205.00 204.00 Z"/>
</g>
<g fill="None" fill-opacity="0.0" stroke="#0F0C18" stroke-opacity="1.00" stroke-width="0.3"><path d="
M 341.00 156.00 
C 333.87 152.84 327.79 163.73 335.78 166.22 C 342.18 169.69 347.34 159.74 341.00 156.00 Z"/>
</g>
<g fill="None" fill-opacity="0.0" stroke="#E6E5E7" stroke-opacity="1.00" stroke-width="0.3"><path d="
M 133.00 192.00 
C 134.74 205.02 157.23 203.58 155.92 190.08 C 148.37 175.26 136.18 190.37 125.00 188.00 C 102.32 187.29 80.21 197.33 66.30 215.30 C 34.48 259.19 87.85 309.96 134.00 301.00 C 197.21 291.90 231.14 225.01 273.75 185.75 C 278.80 173.47 299.29 183.04 297.97 167.03 C 295.03 154.21 271.55 160.31 276.97 172.97 C 273.90 182.95 261.71 186.89 256.75 195.75 C 229.77 225.26 204.91 259.99 171.08 282.08 C 136.63 310.15 69.68 296.79 62.33 248.67 C 59.60 211.25 99.66 189.46 133.00 192.00
M 291.00 164.00 
C 296.83 168.98 289.90 177.26 283.78 173.22 C 276.79 168.80 285.14 161.49 291.00 164.00
M 148.00 187.00 
C 154.36 191.23 148.59 199.28 142.00 197.00 C 134.89 193.32 141.06 183.83 148.00 187.00 Z"/>
</g>
<g fill="None" fill-opacity="0.0" stroke="#0A0C13" stroke-opacity="1.00" stroke-width="0.3"><path d="
M 291.00 164.00 
C 285.14 161.49 276.79 168.80 283.78 173.22 C 289.90 177.26 296.83 168.98 291.00 164.00 Z"/>
</g>
<g fill="None" fill-opacity="0.0" stroke="#0B567E" stroke-opacity="1.00" stroke-width="0.3"><path d="
M 372.00 172.00 
C 383.94 171.62 395.59 172.24 407.00 174.00
C 396.72 170.62 382.87 169.95 372.00 172.00 Z"/>
</g>
<g fill="None" fill-opacity="0.0" stroke="#119BE2" stroke-opacity="1.00" stroke-width="0.3"><path d="
M 363.00 173.00 
C 351.00 175.46 338.62 179.90 328.00 187.00
C 272.85 219.07 242.39 281.73 190.69 318.69 C 181.48 328.10 167.97 311.06 160.00 325.00 C 158.23 339.27 182.37 339.28 183.00 326.00
C 218.32 314.06 238.70 276.59 264.75 251.75 C 288.62 223.27 315.83 195.10 349.98 180.98 C 389.26 169.58 440.66 179.84 459.75 219.25 C 480.95 257.48 446.04 302.65 407.00 309.00
C 392.35 313.03 373.56 313.52 359.00 309.00
C 342.76 306.71 328.85 297.52 317.00 286.00
C 323.64 273.93 306.50 266.41 298.77 274.77 C 291.10 288.59 311.13 285.56 316.25 292.75 C 331.19 306.39 350.09 314.94 370.00 316.00
C 378.67 316.00 387.33 316.00 396.00 316.00
C 421.71 312.91 447.29 300.59 462.00 278.00
C 470.31 264.62 472.08 249.06 471.00 233.00
C 466.43 201.37 435.51 181.13 407.00 174.00
C 395.59 172.24 383.94 171.62 372.00 172.00
C 369.37 173.74 366.03 172.74 363.00 173.00
M 311.00 274.00 
C 318.73 277.33 312.75 288.07 305.33 284.67 C 296.26 281.92 303.56 270.97 311.00 274.00
M 175.00 322.00 
C 181.96 326.94 173.87 335.07 167.33 331.67 C 159.25 326.90 168.53 319.20 175.00 322.00 Z"/>
</g>
<g fill="None" fill-opacity="0.0" stroke="#104C6F" stroke-opacity="1.00" stroke-width="0.3"><path d="
M 328.00 187.00 
C 338.62 179.90 351.00 175.46 363.00 173.00
C 350.27 173.82 337.60 178.92 328.00 187.00 Z"/>
</g>
<g fill="None" fill-opacity="0.0" stroke="#E9E7EA" stroke-opacity="1.00" stroke-width="0.3"><path d="
M 253.00 174.00 
C 243.24 170.96 233.20 178.97 237.92 188.92 C 213.29 215.95 190.46 247.12 160.08 268.08 C 135.99 290.67 83.47 280.66 83.00 243.00 C 85.50 207.36 141.75 196.94 159.77 223.77 C 153.65 231.11 165.18 240.53 172.32 237.32 C 181.12 237.22 185.94 224.88 176.69 221.31 C 168.70 219.51 161.93 215.82 155.75 210.25 C 134.21 198.06 102.83 200.43 85.75 219.75 C 56.78 246.28 91.27 288.98 124.00 286.00 C 172.98 285.15 200.70 236.72 232.70 205.70 C 237.84 200.82 241.02 190.64 249.00 191.00 C 259.15 192.60 261.19 177.55 253.00 174.00
M 251.00 178.00 
C 257.78 180.71 251.25 190.52 245.78 187.22 C 237.73 184.70 244.09 174.65 251.00 178.00
M 172.00 223.00 
C 179.65 226.16 174.75 236.18 167.00 233.00 C 158.56 231.38 165.24 220.19 172.00 223.00 Z"/>
</g>
<g fill="None" fill-opacity="0.0" stroke="#74737F" stroke-opacity="1.00" stroke-width="0.3"><path d="
M 114.00 178.00 
C 122.33 178.00 130.67 178.00 139.00 178.00
C 131.81 176.32 121.26 176.36 114.00 178.00 Z"/>
</g>
<g fill="None" fill-opacity="0.0" stroke="#080C17" stroke-opacity="1.00" stroke-width="0.3"><path d="
M 251.00 178.00 
C 244.09 174.65 237.73 184.70 245.78 187.22 C 251.25 190.52 257.78 180.71 251.00 178.00 Z"/>
</g>
<g fill="None" fill-opacity="0.0" stroke="#060811" stroke-opacity="1.00" stroke-width="0.3"><path d="
M 148.00 187.00 
C 141.06 183.83 134.89 193.32 142.00 197.00 C 148.59 199.28 154.36 191.23 148.00 187.00 Z"/>
</g>
<g fill="None" fill-opacity="0.0" stroke="#0C5175" stroke-opacity="1.00" stroke-width="0.3"><path d="
M 357.00 192.00 
C 369.75 188.29 383.45 186.87 397.00 189.00
C 384.56 185.18 368.69 186.72 357.00 192.00 Z"/>
</g>
<g fill="None" fill-opacity="0.0" stroke="#0F9CE1" stroke-opacity="1.00" stroke-width="0.3"><path d="
M 357.00 192.00 
C 304.24 214.20 272.95 267.90 232.25 307.25 C 228.21 316.01 206.49 307.31 212.08 322.92 C 216.71 334.11 238.58 326.62 231.00 314.00
C 252.49 291.52 272.94 268.72 293.25 245.25 C 315.21 222.41 339.33 196.80 371.00 192.00
C 376.92 190.37 386.15 190.31 392.00 192.00
C 422.59 194.32 452.54 222.01 447.92 254.92 C 438.72 271.07 426.16 288.24 407.01 293.01 C 397.19 294.47 383.20 301.49 374.77 294.23 C 370.91 283.80 352.14 288.09 353.68 298.32 C 359.24 312.04 372.72 299.75 382.00 300.00 C 411.97 302.22 446.36 281.83 451.07 251.07 C 457.16 219.14 425.39 193.34 397.00 189.00
C 383.45 186.87 369.75 188.29 357.00 192.00
M 368.00 291.00 
C 374.19 294.60 369.03 304.71 362.78 301.22 C 354.76 298.67 360.51 287.42 368.00 291.00
M 226.00 315.00 
C 232.05 320.14 223.54 328.05 217.93 324.07 C 209.96 318.91 219.76 312.44 226.00 315.00 Z"/>
</g>
<g fill="None" fill-opacity="0.0" stroke="#0C5880" stroke-opacity="1.00" stroke-width="0.3"><path d="
M 371.00 192.00 
C 378.00 192.00 385.00 192.00 392.00 192.00
C 386.15 190.31 376.92 190.37 371.00 192.00 Z"/>
</g>
<g fill="None" fill-opacity="0.0" stroke="#109FE5" stroke-opacity="1.00" stroke-width="0.3"><path d="
M 373.00 209.00 
C 380.12 207.00 390.21 207.58 397.00 210.00
C 422.58 213.94 438.24 249.35 416.75 267.75 C 397.78 285.59 365.77 284.49 347.00 267.00
C 356.26 255.41 334.59 244.92 329.78 257.78 C 326.88 270.36 345.07 267.70 350.31 276.70 C 369.69 287.59 396.03 288.18 414.77 275.77 C 446.14 257.45 431.59 209.64 398.00 205.00 C 343.80 194.20 309.29 250.10 276.75 284.75 C 271.10 295.26 261.00 297.59 251.75 301.75 C 244.73 312.56 265.66 320.69 271.22 310.22 C 268.92 299.24 276.88 291.93 284.25 284.25 C 310.10 256.23 335.14 219.08 373.00 209.00
M 342.00 255.00 
C 348.79 257.67 343.18 269.05 336.93 265.07 C 329.15 261.53 334.60 252.28 342.00 255.00
M 265.00 301.00 
C 272.36 306.10 264.41 314.46 257.78 310.22 C 249.38 306.69 258.65 298.12 265.00 301.00 Z"/>
</g>
<g fill="None" fill-opacity="0.0" stroke="#05070B" stroke-opacity="1.00" stroke-width="0.3"><path d="
M 205.00 204.00 
C 198.46 201.36 191.24 208.16 197.78 213.22 C 203.90 217.26 210.83 208.98 205.00 204.00 Z"/>
</g>
<g fill="None" fill-opacity="0.0" stroke="#095781" stroke-opacity="1.00" stroke-width="0.3"><path d="
M 373.00 209.00 
C 381.15 208.68 389.14 209.19 397.00 210.00
C 390.21 207.58 380.12 207.00 373.00 209.00 Z"/>
</g>
<g fill="None" fill-opacity="0.0" stroke="#0A0D17" stroke-opacity="1.00" stroke-width="0.3"><path d="
M 172.00 223.00 
C 165.24 220.19 158.56 231.38 167.00 233.00 C 174.75 236.18 179.65 226.16 172.00 223.00 Z"/>
</g>
<g fill="None" fill-opacity="0.0" stroke="#0C537C" stroke-opacity="1.00" stroke-width="0.3"><path d="
M 462.00 278.00 
C 471.61 266.02 473.92 247.99 471.00 233.00
C 472.08 249.06 470.31 264.62 462.00 278.00 Z"/>
</g>
<g fill="None" fill-opacity="0.0" stroke="#0A0B18" stroke-opacity="1.00" stroke-width="0.3"><path d="
M 342.00 255.00 
C 334.60 252.28 329.15 261.53 336.93 265.07 C 343.18 269.05 348.79 257.67 342.00 255.00 Z"/>
</g>
<g fill="None" fill-opacity="0.0" stroke="#090B18" stroke-opacity="1.00" stroke-width="0.3"><path d="
M 311.00 274.00 
C 303.56 270.97 296.26 281.92 305.33 284.67 C 312.75 288.07 318.73 277.33 311.00 274.00 Z"/>
</g>
<g fill="None" fill-opacity="0.0" stroke="#0A0C17" stroke-opacity="1.00" stroke-width="0.3"><path d="
M 368.00 291.00 
C 360.51 287.42 354.76 298.67 362.78 301.22 C 369.03 304.71 374.19 294.60 368.00 291.00 Z"/>
</g>
<g fill="None" fill-opacity="0.0" stroke="#0F0B17" stroke-opacity="1.00" stroke-width="0.3"><path d="
M 265.00 301.00 
C 258.65 298.12 249.38 306.69 257.78 310.22 C 264.41 314.46 272.36 306.10 265.00 301.00 Z"/>
</g>
<g fill="None" fill-opacity="0.0" stroke="#0E5377" stroke-opacity="1.00" stroke-width="0.3"><path d="
M 407.00 309.00 
C 391.30 311.39 374.65 311.87 359.00 309.00
C 373.56 313.52 392.35 313.03 407.00 309.00 Z"/>
</g>
<g fill="None" fill-opacity="0.0" stroke="#0A0711" stroke-opacity="1.00" stroke-width="0.3"><path d="
M 226.00 315.00 
C 219.76 312.44 209.96 318.91 217.93 324.07 C 223.54 328.05 232.05 320.14 226.00 315.00 Z"/>
</g>
<g fill="None" fill-opacity="0.0" stroke="#0C5C85" stroke-opacity="1.00" stroke-width="0.3"><path d="
M 396.00 316.00 
C 387.33 316.00 378.67 316.00 370.00 316.00
C 377.52 317.68 388.41 317.65 396.00 316.00 Z"/>
</g>
<g fill="None" fill-opacity="0.0" stroke="#090811" stroke-opacity="1.00" stroke-width="0.3"><path d="
M 175.00 322.00 
C 168.53 319.20 159.25 326.90 167.33 331.67 C 173.87 335.07 181.96 326.94 175.00 322.00 Z"/>
</g>
<g fill="#06121D" fill-opacity="1.00" stroke="None"><path d="
M 0.00 512.00 
L 512.00 512.00
L 512.00 0.00
L 0.00 0.00
L 0.00 512.00 Z"/>
</g>
<g fill="#EAE9EB" fill-opacity="1.00" stroke="None"><path d="
M 114.00 178.00 
C 121.26 176.36 131.81 176.32 139.00 178.00
C 150.82 179.66 161.34 182.66 170.92 188.08 C 178.75 192.13 193.41 198.02 190.01 208.99 C 190.99 221.67 214.20 220.61 211.92 207.08 C 206.24 197.30 193.31 199.77 187.23 189.77 C 178.69 183.51 168.87 179.46 159.07 175.93 C 105.96 156.92 29.84 191.45 36.22 254.78 C 48.08 299.53 96.10 323.64 140.99 316.99 C 225.19 303.19 257.79 206.07 326.99 167.01 C 334.71 174.28 354.14 169.62 347.25 156.75 C 336.94 145.63 328.02 159.75 319.70 163.69 C 310.62 168.04 302.05 173.17 295.23 181.23 C 259.17 214.89 231.91 256.77 192.70 287.70 C 151.99 322.92 76.34 321.16 49.92 269.08 C 28.15 226.29 70.91 179.47 114.00 178.00 Z"/>
</g>
<g fill="#0F0C18" fill-opacity="1.00" stroke="None"><path d="
M 341.00 156.00 
C 333.87 152.84 327.79 163.73 335.78 166.22 C 342.18 169.69 347.34 159.74 341.00 156.00 Z"/>
</g>
<g fill="#E6E5E7" fill-opacity="1.00" stroke="None"><path d="
M 133.00 192.00 
C 134.74 205.02 157.23 203.58 155.92 190.08 C 148.37 175.26 136.18 190.37 125.00 188.00 C 102.32 187.29 80.21 197.33 66.30 215.30 C 34.48 259.19 87.85 309.96 134.00 301.00 C 197.21 291.90 231.14 225.01 273.75 185.75 C 278.80 173.47 299.29 183.04 297.97 167.03 C 295.03 154.21 271.55 160.31 276.97 172.97 C 273.90 182.95 261.71 186.89 256.75 195.75 C 229.77 225.26 204.91 259.99 171.08 282.08 C 136.63 310.15 69.68 296.79 62.33 248.67 C 59.60 211.25 99.66 189.46 133.00 192.00 Z"/>
</g>
<g fill="#0A0C13" fill-opacity="1.00" stroke="None"><path d="
M 291.00 164.00 
C 285.14 161.49 276.79 168.80 283.78 173.22 C 289.90 177.26 296.83 168.98 291.00 164.00 Z"/>
</g>
<g fill="#0B567E" fill-opacity="1.00" stroke="None"><path d="
M 372.00 172.00 
C 383.94 171.62 395.59 172.24 407.00 174.00
C 396.72 170.62 382.87 169.95 372.00 172.00 Z"/>
</g>
<g fill="#119BE2" fill-opacity="1.00" stroke="None"><path d="
M 363.00 173.00 
C 351.00 175.46 338.62 179.90 328.00 187.00
C 272.85 219.07 242.39 281.73 190.69 318.69 C 181.48 328.10 167.97 311.06 160.00 325.00 C 158.23 339.27 182.37 339.28 183.00 326.00
C 218.32 314.06 238.70 276.59 264.75 251.75 C 288.62 223.27 315.83 195.10 349.98 180.98 C 389.26 169.58 440.66 179.84 459.75 219.25 C 480.95 257.48 446.04 302.65 407.00 309.00
C 392.35 313.03 373.56 313.52 359.00 309.00
C 342.76 306.71 328.85 297.52 317.00 286.00
C 323.64 273.93 306.50 266.41 298.77 274.77 C 291.10 288.59 311.13 285.56 316.25 292.75 C 331.19 306.39 350.09 314.94 370.00 316.00
C 378.67 316.00 387.33 316.00 396.00 316.00
C 421.71 312.91 447.29 300.59 462.00 278.00
C 470.31 264.62 472.08 249.06 471.00 233.00
C 466.43 201.37 435.51 181.13 407.00 174.00
C 395.59 172.24 383.94 171.62 372.00 172.00
C 369.37 173.74 366.03 172.74 363.00 173.00 Z"/>
</g>
<g fill="#104C6F" fill-opacity="1.00" stroke="None"><path d="
M 328.00 187.00 
C 338.62 179.90 351.00 175.46 363.00 173.00
C 350.27 173.82 337.60 178.92 328.00 187.00 Z"/>
</g>
<g fill="#E9E7EA" fill-opacity="1.00" stroke="None"><path d="
M 253.00 174.00 
C 243.24 170.96 233.20 178.97 237.92 188.92 C 213.29 215.95 190.46 247.12 160.08 268.08 C 135.99 290.67 83.47 280.66 83.00 243.00 C 85.50 207.36 141.75 196.94 159.77 223.77 C 153.65 231.11 165.18 240.53 172.32 237.32 C 181.12 237.22 185.94 224.88 176.69 221.31 C 168.70 219.51 161.93 215.82 155.75 210.25 C 134.21 198.06 102.83 200.43 85.75 219.75 C 56.78 246.28 91.27 288.98 124.00 286.00 C 172.98 285.15 200.70 236.72 232.70 205.70 C 237.84 200.82 241.02 190.64 249.00 191.00 C 259.15 192.60 261.19 177.55 253.00 174.00 Z"/>
</g>
<g fill="#74737F" fill-opacity="1.00" stroke="None"><path d="
M 114.00 178.00 
C 122.33 178.00 130.67 178.00 139.00 178.00
C 131.81 176.32 121.26 176.36 114.00 178.00 Z"/>
</g>
<g fill="#080C17" fill-opacity="1.00" stroke="None"><path d="
M 251.00 178.00 
C 244.09 174.65 237.73 184.70 245.78 187.22 C 251.25 190.52 257.78 180.71 251.00 178.00 Z"/>
</g>
<g fill="#060811" fill-opacity="1.00" stroke="None"><path d="
M 148.00 187.00 
C 141.06 183.83 134.89 193.32 142.00 197.00 C 148.59 199.28 154.36 191.23 148.00 187.00 Z"/>
</g>
<g fill="#0C5175" fill-opacity="1.00" stroke="None"><path d="
M 357.00 192.00 
C 369.75 188.29 383.45 186.87 397.00 189.00
C 384.56 185.18 368.69 186.72 357.00 192.00 Z"/>
</g>
<g fill="#0F9CE1" fill-opacity="1.00" stroke="None"><path d="
M 357.00 192.00 
C 304.24 214.20 272.95 267.90 232.25 307.25 C 228.21 316.01 206.49 307.31 212.08 322.92 C 216.71 334.11 238.58 326.62 231.00 314.00
C 252.49 291.52 272.94 268.72 293.25 245.25 C 315.21 222.41 339.33 196.80 371.00 192.00
C 376.92 190.37 386.15 190.31 392.00 192.00
C 422.59 194.32 452.54 222.01 447.92 254.92 C 438.72 271.07 426.16 288.24 407.01 293.01 C 397.19 294.47 383.20 301.49 374.77 294.23 C 370.91 283.80 352.14 288.09 353.68 298.32 C 359.24 312.04 372.72 299.75 382.00 300.00 C 411.97 302.22 446.36 281.83 451.07 251.07 C 457.16 219.14 425.39 193.34 397.00 189.00
C 383.45 186.87 369.75 188.29 357.00 192.00 Z"/>
</g>
<g fill="#0C5880" fill-opacity="1.00" stroke="None"><path d="
M 371.00 192.00 
C 378.00 192.00 385.00 192.00 392.00 192.00
C 386.15 190.31 376.92 190.37 371.00 192.00 Z"/>
</g>
<g fill="#109FE5" fill-opacity="1.00" stroke="None"><path d="
M 373.00 209.00 
C 380.12 207.00 390.21 207.58 397.00 210.00
C 422.58 213.94 438.24 249.35 416.75 267.75 C 397.78 285.59 365.77 284.49 347.00 267.00
C 356.26 255.41 334.59 244.92 329.78 257.78 C 326.88 270.36 345.07 267.70 350.31 276.70 C 369.69 287.59 396.03 288.18 414.77 275.77 C 446.14 257.45 431.59 209.64 398.00 205.00 C 343.80 194.20 309.29 250.10 276.75 284.75 C 271.10 295.26 261.00 297.59 251.75 301.75 C 244.73 312.56 265.66 320.69 271.22 310.22 C 268.92 299.24 276.88 291.93 284.25 284.25 C 310.10 256.23 335.14 219.08 373.00 209.00 Z"/>
</g>
<g fill="#05070B" fill-opacity="1.00" stroke="None"><path d="
M 205.00 204.00 
C 198.46 201.36 191.24 208.16 197.78 213.22 C 203.90 217.26 210.83 208.98 205.00 204.00 Z"/>
</g>
<g fill="#095781" fill-opacity="1.00" stroke="None"><path d="
M 373.00 209.00 
C 381.15 208.68 389.14 209.19 397.00 210.00
C 390.21 207.58 380.12 207.00 373.00 209.00 Z"/>
</g>
<g fill="#0A0D17" fill-opacity="1.00" stroke="None"><path d="
M 172.00 223.00 
C 165.24 220.19 158.56 231.38 167.00 233.00 C 174.75 236.18 179.65 226.16 172.00 223.00 Z"/>
</g>
<g fill="#0C537C" fill-opacity="1.00" stroke="None"><path d="
M 462.00 278.00 
C 471.61 266.02 473.92 247.99 471.00 233.00
C 472.08 249.06 470.31 264.62 462.00 278.00 Z"/>
</g>
<g fill="#0A0B18" fill-opacity="1.00" stroke="None"><path d="
M 342.00 255.00 
C 334.60 252.28 329.15 261.53 336.93 265.07 C 343.18 269.05 348.79 257.67 342.00 255.00 Z"/>
</g>
<g fill="#090B18" fill-opacity="1.00" stroke="None"><path d="
M 311.00 274.00 
C 303.56 270.97 296.26 281.92 305.33 284.67 C 312.75 288.07 318.73 277.33 311.00 274.00 Z"/>
</g>
<g fill="#0A0C17" fill-opacity="1.00" stroke="None"><path d="
M 368.00 291.00 
C 360.51 287.42 354.76 298.67 362.78 301.22 C 369.03 304.71 374.19 294.60 368.00 291.00 Z"/>
</g>
<g fill="#0F0B17" fill-opacity="1.00" stroke="None"><path d="
M 265.00 301.00 
C 258.65 298.12 249.38 306.69 257.78 310.22 C 264.41 314.46 272.36 306.10 265.00 301.00 Z"/>
</g>
<g fill="#0E5377" fill-opacity="1.00" stroke="None"><path d="
M 407.00 309.00 
C 391.30 311.39 374.65 311.87 359.00 309.00
C 373.56 313.52 392.35 313.03 407.00 309.00 Z"/>
</g>
<g fill="#0A0711" fill-opacity="1.00" stroke="None"><path d="
M 226.00 315.00 
C 219.76 312.44 209.96 318.91 217.93 324.07 C 223.54 328.05 232.05 320.14 226.00 315.00 Z"/>
</g>
<g fill="#0C5C85" fill-opacity="1.00" stroke="None"><path d="
M 396.00 316.00 
C 387.33 316.00 378.67 316.00 370.00 316.00
C 377.52 317.68 388.41 317.65 396.00 316.00 Z"/>
</g>
<g fill="#090811" fill-opacity="1.00" stroke="None"><path d="
M 175.00 322.00 
C 168.53 319.20 159.25 326.90 167.33 331.67 C 173.87 335.07 181.96 326.94 175.00 322.00 Z"/>
</g>
</svg>